Hanif_Shallow_5_0_grf.mot
version=1
nRows=48
nColumns=19
inDegrees=yes
endheader
time	right_ground_force_vx	right_ground_force_vy	right_ground_force_vz	right_ground_force_px	right_ground_force_py	right_ground_force_pz	right_ground_torque_x	right_ground_torque_y	right_ground_torque_z	left_ground_force_vx	left_ground_force_vy	left_ground_force_vz	left_ground_force_px	left_ground_force_py	left_ground_force_pz	left_ground_torque_x	left_ground_torque_y	left_ground_torque_z
3.625000	7.657370	398.752000	68.468800	0.192406	0.000000	-1.439730	-26.285300	8.300450	-1.779440	-5.829720	361.311000	-68.480600	0.218223	0.000000	-0.981500	28.486900	-5.971790	8.039200
3.630000	7.791570	400.327000	69.565800	0.193013	0.000000	-1.440940	-25.902200	8.271290	-1.532380	-6.283600	359.191000	-68.984300	0.218014	0.000000	-0.982147	28.563100	-5.935110	7.944400
3.635000	8.372430	398.453000	70.186800	0.193305	0.000000	-1.439740	-26.251100	8.195750	-1.404520	-6.478110	358.440000	-69.152200	0.217872	0.000000	-0.982827	28.752100	-5.934290	7.889250
3.640000	8.698870	402.751000	70.538500	0.193619	0.000000	-1.440860	-26.077800	8.276630	-1.298540	-6.207000	356.826000	-68.940900	0.218129	0.000000	-0.982795	28.605200	-5.863790	7.939050
3.645000	8.979740	399.874000	70.973200	0.193844	0.000000	-1.439350	-26.487100	8.275850	-1.176620	-6.220520	355.765000	-69.543500	0.217698	0.000000	-0.981818	28.173000	-5.841600	7.774660
3.650000	8.837540	399.798000	71.598500	0.194082	0.000000	-1.439420	-26.457200	8.228580	-1.073630	-6.195800	350.204000	-69.274300	0.217830	0.000000	-0.981786	27.725300	-5.847640	7.741650
3.655000	9.297820	398.315000	72.141300	0.193936	0.000000	-1.439220	-26.434300	8.155340	-1.130090	-5.393180	347.703000	-69.466400	0.217267	0.000000	-0.982545	27.773900	-5.837730	7.495270
3.660000	10.746900	394.969000	72.210400	0.194125	0.000000	-1.439710	-25.990800	8.174540	-1.033610	-5.811760	342.578000	-68.304100	0.217324	0.000000	-0.983143	27.580300	-5.724090	7.404790
3.665000	11.146900	393.539000	72.010500	0.193911	0.000000	-1.439220	-26.081600	8.273480	-1.098840	-5.632510	340.332000	-67.746700	0.217221	0.000000	-0.983018	27.354500	-5.737870	7.324980
3.670000	11.337600	394.925000	72.847000	0.194174	0.000000	-1.439360	-26.116700	8.187960	-1.007960	-5.954360	338.031000	-67.024900	0.217666	0.000000	-0.982739	27.084100	-5.709220	7.432520
3.675000	11.498400	391.276000	73.887800	0.194426	0.000000	-1.438630	-26.158200	8.073020	-0.880717	-5.901210	333.009000	-66.425600	0.218286	0.000000	-0.983691	27.001000	-5.648910	7.553610
3.680000	11.832900	389.402000	73.730400	0.193778	0.000000	-1.438700	-26.007000	7.870650	-1.170180	-5.880480	329.828000	-65.698800	0.218758	0.000000	-0.983500	26.680800	-5.565590	7.635280
3.685000	10.719200	389.438000	74.558300	0.194386	0.000000	-1.439940	-25.542400	7.780690	-0.912397	-5.954910	328.305000	-65.295400	0.219416	0.000000	-0.984264	26.811800	-5.555880	7.827660
3.690000	10.476600	385.681000	74.280100	0.194959	0.000000	-1.438750	-25.761200	7.617940	-0.684722	-6.641020	323.571000	-64.545400	0.220144	0.000000	-0.985271	26.767700	-5.327000	7.949130
3.695000	10.192600	384.198000	74.278100	0.195450	0.000000	-1.438220	-25.869800	7.497400	-0.497672	-6.774380	321.329000	-63.916800	0.219940	0.000000	-0.984579	26.363900	-5.299250	7.824810
3.700000	9.600610	383.053000	74.299200	0.196171	0.000000	-1.438290	-25.772300	7.417180	-0.209242	-6.939170	315.219000	-62.649300	0.220696	0.000000	-0.985637	26.205000	-5.224560	7.933870
3.705000	9.050200	380.490000	74.021500	0.196546	0.000000	-1.438140	-25.668300	7.265440	-0.069805	-7.362390	311.601000	-62.159800	0.221099	0.000000	-0.985531	25.884100	-5.157740	7.986340
3.710000	7.978790	377.593000	73.682000	0.196985	0.000000	-1.437980	-25.551200	7.029950	0.084243	-7.697070	306.763000	-61.075800	0.221010	0.000000	-0.985234	25.405000	-5.204380	7.862730
3.715000	7.437460	375.025000	72.700600	0.197700	0.000000	-1.437480	-25.570100	7.127610	0.388073	-7.865160	302.771000	-60.265700	0.220482	0.000000	-0.986004	25.311800	-5.065910	7.585270
3.720000	7.527820	370.890000	72.681500	0.197331	0.000000	-1.436340	-25.709800	6.908540	0.223027	-7.762890	299.063000	-59.522500	0.220306	0.000000	-0.985326	24.798000	-4.980460	7.431740
3.725000	7.468260	366.149000	72.497200	0.197839	0.000000	-1.436680	-25.257300	6.746820	0.410934	-7.639360	293.632000	-59.059300	0.221452	0.000000	-0.986436	24.675700	-4.873450	7.662140
3.730000	7.205670	366.156000	72.784900	0.198868	0.000000	-1.437180	-25.078300	6.706150	0.803790	-8.520690	289.901000	-58.155300	0.220504	0.000000	-0.985963	24.247300	-4.782240	7.284610
3.735000	7.206730	364.252000	72.860300	0.199081	0.000000	-1.436970	-25.023900	6.653170	0.883231	-8.791730	285.567000	-58.113400	0.221350	0.000000	-0.985213	23.684500	-4.770520	7.467130
3.740000	6.598700	360.569000	72.255600	0.200065	0.000000	-1.436250	-25.042000	6.364020	1.207320	-9.188530	281.899000	-56.658100	0.222407	0.000000	-0.986355	23.718600	-4.741340	7.678580
3.745000	6.805070	356.819000	72.511500	0.200128	0.000000	-1.437150	-24.452200	6.401730	1.253200	-10.071300	276.840000	-55.998000	0.222545	0.000000	-0.986978	23.493300	-4.624370	7.603090
3.750000	6.371000	353.150000	72.149600	0.199749	0.000000	-1.436500	-24.440800	6.139630	1.071470	-10.422800	274.942000	-55.435500	0.224244	0.000000	-0.985276	22.876500	-4.536940	8.024250
3.755000	6.645740	349.807000	71.764600	0.200297	0.000000	-1.435880	-24.418800	6.176050	1.279590	-10.408300	271.021000	-55.237700	0.224557	0.000000	-0.985875	22.717100	-4.451660	8.015050
3.760000	6.477720	344.235000	71.123000	0.200684	0.000000	-1.435560	-24.142300	6.003770	1.391840	-10.682300	268.411000	-55.124400	0.224402	0.000000	-0.986443	22.663900	-4.469610	7.927050
3.765000	5.856700	341.688000	70.770100	0.201234	0.000000	-1.434810	-24.228600	5.865190	1.568000	-10.855300	263.657000	-54.852400	0.224003	0.000000	-0.986770	22.355500	-4.310340	7.688390
3.770000	5.391040	336.188000	69.640500	0.201204	0.000000	-1.433990	-24.120500	5.822780	1.547740	-10.993700	259.619000	-54.589400	0.223869	0.000000	-0.987396	22.184200	-4.224300	7.554270
3.775000	4.868170	332.878000	69.460000	0.201770	0.000000	-1.433470	-24.063300	5.651990	1.720590	-10.641700	255.257000	-54.325000	0.224473	0.000000	-0.986518	21.585900	-4.193340	7.611430
3.780000	4.952690	331.031000	68.924700	0.202528	0.000000	-1.434480	-23.593300	5.597100	1.964810	-9.916490	253.789000	-54.177900	0.223860	0.000000	-0.986086	21.332100	-4.172680	7.398070
3.785000	4.598990	329.484000	68.923500	0.203942	0.000000	-1.434210	-23.578700	5.435970	2.423850	-8.851910	250.828000	-54.656900	0.223051	0.000000	-0.986273	21.100600	-4.049580	7.099410
3.790000	4.689340	326.220000	68.633800	0.204361	0.000000	-1.433480	-23.581800	5.378190	2.545650	-9.199890	247.841000	-54.192800	0.223513	0.000000	-0.985722	20.727700	-4.049080	7.157970
3.795000	3.970750	324.700000	68.040300	0.204281	0.000000	-1.433110	-23.602000	5.397680	2.521430	-8.902230	246.718000	-53.570900	0.224067	0.000000	-0.986453	20.807000	-4.001220	7.247800
3.800000	4.148700	321.733000	67.828100	0.205046	0.000000	-1.431660	-23.851500	5.197380	2.726320	-8.637930	242.359000	-53.941800	0.224233	0.000000	-0.986621	20.475500	-3.835300	7.178490
3.805000	3.456960	316.229000	67.304800	0.205436	0.000000	-1.432190	-23.282900	5.226930	2.854960	-8.532140	239.090000	-53.925000	0.224401	0.000000	-0.988117	20.563400	-3.917350	7.178110
3.810000	3.166500	317.329000	67.027100	0.206892	0.000000	-1.431420	-23.614000	5.123520	3.316840	-8.076120	237.961000	-53.407900	0.224416	0.000000	-0.987277	20.253200	-3.866480	7.123210
3.815000	2.994890	313.211000	66.744300	0.207267	0.000000	-1.430010	-23.751900	4.956110	3.387140	-8.049280	236.883000	-52.790200	0.225268	0.000000	-0.986542	19.982000	-3.654250	7.247060
3.820000	2.900010	312.431000	66.388500	0.208180	0.000000	-1.430800	-23.445500	4.898450	3.665550	-7.327490	234.321000	-52.804900	0.225282	0.000000	-0.987277	19.924700	-3.700320	7.197920
3.825000	3.113350	309.500000	66.641100	0.208353	0.000000	-1.429740	-23.552100	4.741600	3.675080	-7.344170	233.914000	-53.411900	0.225972	0.000000	-0.987976	20.052300	-3.570070	7.349540
3.830000	3.365120	306.869000	66.085200	0.209266	0.000000	-1.429300	-23.480100	4.794500	3.952270	-7.032610	231.444000	-52.529200	0.226240	0.000000	-0.989175	20.112400	-3.534670	7.325790
3.835000	3.104470	303.592000	65.824400	0.209538	0.000000	-1.429510	-23.169900	4.619460	3.981990	-7.147420	232.118000	-52.874800	0.227469	0.000000	-0.986872	19.639000	-3.490570	7.638480
3.840000	3.446830	305.730000	65.551400	0.209925	0.000000	-1.429910	-23.206800	4.518940	4.086480	-6.653150	230.342000	-52.253100	0.229168	0.000000	-0.989170	20.007300	-3.393990	7.964440
3.845000	3.008080	301.064000	65.088600	0.211540	0.000000	-1.428570	-23.262900	4.403360	4.538220	-6.747990	228.512000	-52.785300	0.229390	0.000000	-0.989074	19.828200	-3.260810	7.961620
3.850000	2.458290	298.869000	64.283500	0.211699	0.000000	-1.428490	-23.124600	4.346630	4.552220	-6.475130	229.218000	-52.791500	0.229333	0.000000	-0.988857	19.829000	-3.175490	7.939560
3.855000	3.172940	295.816000	63.716900	0.211874	0.000000	-1.427070	-23.297000	4.285270	4.544490	-5.688690	229.957000	-53.272100	0.229154	0.000000	-0.988756	19.846700	-3.068980	7.888060
3.860000	3.189920	293.565000	63.892500	0.212932	0.000000	-1.427630	-22.956200	4.133970	4.821520	-5.784540	230.999000	-53.545300	0.229170	0.000000	-0.987570	19.660000	-2.919490	7.890300
